<svg viewBox="0 0 750 325" fill="none" xmlns="http://www.w3.org/2000/svg">
<path d="M603.641 5.25571C602.841 9.35571 602.841 13.7557 603.641 22.5557C604.741 34.1557 604.741 34.5557 601.841 46.8557C599.241 57.4557 598.141 60.3557 594.241 66.1557C591.741 69.9557 589.641 73.8557 589.641 74.9557C589.641 75.9557 589.041 76.8557 588.341 76.8557C586.441 76.8557 577.941 71.2557 571.641 65.8557C568.641 63.3557 564.141 59.8557 561.641 58.1557C559.141 56.4557 556.041 53.8557 554.741 52.4557C553.341 51.0557 551.441 49.8557 550.341 49.8557C549.241 49.8557 546.241 48.5557 543.741 46.9557C541.241 45.2557 536.941 42.9557 534.241 41.7557C531.541 40.5557 526.541 37.6557 523.041 35.3557C517.241 31.3557 510.041 28.8557 504.241 28.8557C502.941 28.8557 496.341 27.7557 489.541 26.3557C479.341 24.2557 474.741 23.8557 463.641 24.0557C452.541 24.1557 449.541 23.9557 446.941 22.5557C445.141 21.6557 442.641 20.8557 441.341 20.8557C439.941 20.8557 434.441 19.4557 429.041 17.7557C418.941 14.6557 401.541 12.3557 398.641 13.8557C397.841 14.2557 393.841 14.1557 389.741 13.6557C385.741 13.0557 382.141 13.0557 381.741 13.4557C381.441 13.9557 377.341 14.4557 372.641 14.5557C355.441 15.0557 351.141 15.3557 349.641 16.3557C348.341 17.2557 341.641 18.5557 328.141 20.5557C325.941 20.8557 322.841 22.1557 321.341 23.4557C319.741 24.7557 317.241 26.1557 315.841 26.4557C312.941 27.1557 311.741 27.7557 301.541 32.8557C295.741 35.7557 294.441 35.9557 291.741 35.0557C289.241 34.1557 288.541 34.2557 287.741 35.5557C286.941 37.0557 286.541 37.0557 282.741 35.5557C280.341 34.5557 278.641 34.2557 278.641 34.8557C278.641 35.4557 279.341 36.1557 280.141 36.4557C283.441 37.7557 281.441 38.9557 277.041 38.2557C273.241 37.7557 272.141 37.9557 270.341 39.6557C268.541 41.3557 265.841 41.9557 255.141 42.8557C248.041 43.5557 241.241 44.4557 240.141 44.8557C239.041 45.3557 232.641 46.1557 225.841 46.6557C219.141 47.2557 213.041 48.1557 212.241 48.7557C210.841 49.9557 209.641 50.1557 192.641 51.8557C186.341 52.4557 177.841 53.3557 173.841 53.9557C164.041 55.1557 143.541 55.1557 134.041 53.7557C127.041 52.7557 118.741 50.8557 102.641 46.3557C99.6408 45.5557 93.5408 44.5557 89.1408 44.2557C79.4408 43.6557 76.3408 44.8557 75.8408 49.5557C75.3408 54.9557 81.2408 59.5557 98.7408 67.2557C107.041 70.9557 117.441 74.7557 121.941 75.8557C131.641 78.1557 149.041 79.8557 163.441 79.8557C171.441 79.8557 173.641 80.1557 173.641 81.2557C173.641 82.8557 166.241 86.1557 158.641 87.8557C155.641 88.4557 149.341 90.2557 144.641 91.8557C139.941 93.4557 133.441 95.0557 130.141 95.3557C126.841 95.7557 122.041 97.1557 119.441 98.4557C116.841 99.7557 113.041 100.856 110.941 100.856C108.841 100.856 105.741 101.756 103.941 102.856C102.141 103.856 98.3408 105.456 95.4408 106.156C92.5408 106.956 84.9408 109.856 78.6408 112.656C60.1408 120.656 47.8408 124.656 38.1408 125.856C33.2408 126.556 27.5408 127.456 25.5408 127.956C23.5408 128.456 19.8408 128.856 17.2408 128.856C13.0408 128.856 12.0408 129.356 7.54081 133.556C-0.85919 141.456 -1.95919 145.456 2.84081 151.556C4.14081 153.056 5.94081 156.056 7.04081 158.056C8.04081 160.056 9.84081 161.956 11.0408 162.256C14.6408 163.156 35.7408 161.056 43.1408 159.056C60.0408 154.456 68.7408 151.356 77.4408 146.756C82.4408 144.056 89.6408 141.156 93.4408 140.256C97.1408 139.356 101.541 137.756 103.141 136.856C104.841 135.856 108.841 134.256 112.141 133.356C115.441 132.356 119.741 130.856 121.641 129.856C123.541 128.856 127.341 127.756 130.141 127.356C132.841 126.956 137.241 125.556 139.841 124.256C143.941 122.156 146.941 121.656 158.541 120.956C168.241 120.356 173.141 119.556 174.841 118.456C176.641 117.356 178.541 117.056 182.441 117.556C190.741 118.556 189.241 119.256 167.841 124.956C159.141 127.156 153.641 130.656 153.641 133.756C153.641 134.756 152.041 136.956 150.041 138.756C146.541 142.056 146.541 142.056 147.141 148.356C148.341 159.356 148.941 161.156 152.441 163.556C161.741 169.756 180.741 166.456 191.141 156.856C193.841 154.256 198.141 151.356 200.641 150.456C203.141 149.456 207.541 147.356 210.541 145.756C213.541 144.156 217.541 142.656 219.541 142.256C221.541 141.956 227.541 140.756 233.041 139.756C241.541 138.056 243.141 137.956 244.541 139.156C246.541 140.956 252.541 143.856 254.141 143.856C254.741 143.856 256.541 145.156 258.141 146.856C259.741 148.456 261.441 149.856 262.041 149.856C262.541 149.856 263.741 150.456 264.541 151.256C265.441 151.956 270.241 154.256 275.241 156.256C282.541 159.156 286.841 160.056 298.141 161.356C305.741 162.156 312.541 163.356 313.241 163.956C313.941 164.456 318.641 165.256 323.841 165.556C328.941 165.856 334.641 166.756 336.541 167.456C338.341 168.256 341.341 168.856 343.041 168.856C344.741 168.856 349.341 170.056 353.141 171.456C357.041 172.856 363.441 174.656 367.541 175.456C375.141 176.856 379.341 179.056 385.441 184.756C389.541 188.656 389.541 188.656 377.741 196.756C372.941 200.056 367.241 204.756 365.041 207.156C362.941 209.656 359.541 212.356 357.641 213.356C355.741 214.356 351.641 217.456 348.641 220.356C345.541 223.256 342.141 225.856 341.041 226.256C339.841 226.556 337.541 228.656 335.841 230.756C334.141 232.956 330.341 236.056 327.441 237.756C324.441 239.356 321.041 242.156 319.741 243.856C318.441 245.756 314.541 248.356 310.341 250.456C306.441 252.256 301.541 255.156 299.541 256.856C294.741 260.656 291.641 261.856 284.141 262.956C272.741 264.456 269.041 265.456 265.941 267.856C261.141 271.356 259.841 275.056 259.741 285.456C259.741 294.456 259.741 294.556 263.141 298.156C271.841 307.456 277.341 308.756 296.241 306.556C309.541 304.956 314.541 303.156 322.141 297.356C325.841 294.456 328.041 293.456 330.641 293.556C335.641 293.756 337.341 292.456 340.241 286.556C343.341 280.556 357.141 265.856 359.741 265.856C360.741 265.856 363.441 264.056 365.741 261.856C368.041 259.656 370.841 257.856 371.941 257.856C373.041 257.856 375.641 256.256 377.741 254.356C379.941 252.456 382.241 250.856 383.041 250.856C383.841 250.856 385.241 250.056 386.241 249.156C387.141 248.156 388.841 247.456 389.941 247.356C391.341 247.356 393.841 244.756 397.741 239.256C402.941 231.956 404.041 230.956 409.941 228.456C413.441 226.956 417.641 224.456 419.241 222.756C420.741 221.156 422.341 219.856 422.841 219.856C424.541 219.856 423.441 221.956 419.441 226.756C414.341 232.656 407.641 244.056 407.641 246.756C407.641 249.856 405.141 251.556 399.441 252.356C396.541 252.756 393.041 253.956 391.741 254.956C390.441 256.056 388.641 256.856 387.741 256.856C386.841 256.856 384.841 257.756 383.141 258.856C381.541 259.956 379.341 260.856 378.441 260.856C375.941 260.856 359.141 269.656 356.741 272.256C355.541 273.556 354.241 276.356 353.941 278.456C353.541 280.856 352.041 283.856 349.941 286.156C345.841 290.756 344.641 293.656 344.641 298.956C344.641 303.056 346.941 308.856 348.541 308.856C349.041 308.856 349.841 310.356 350.141 312.156C351.741 319.456 357.541 324.856 364.141 324.856C365.541 324.856 369.041 323.856 371.841 322.656C375.841 320.956 377.241 320.756 378.741 321.656C379.741 322.356 381.341 322.856 382.141 322.856C385.641 322.856 394.441 317.256 399.141 312.056C403.841 306.856 412.941 300.256 426.941 291.656C430.241 289.656 434.541 286.356 436.541 284.456C438.541 282.456 441.241 280.856 442.341 280.856C443.541 280.856 445.241 279.856 446.041 278.656C446.941 277.456 447.941 276.756 448.241 277.156C448.641 277.456 450.241 276.656 451.841 275.356C453.441 273.956 455.541 272.856 456.541 272.856C457.441 272.856 459.841 271.656 461.741 270.256C470.541 263.656 477.441 261.356 483.841 263.056C487.641 263.956 489.041 263.956 490.941 262.956C493.541 261.556 500.941 261.256 509.941 262.156C513.041 262.456 515.641 262.356 515.641 261.856C515.641 260.556 518.941 259.756 519.941 260.756C520.641 261.456 521.541 261.456 522.741 260.856C523.941 260.156 525.441 260.256 527.341 261.056C531.941 262.856 537.841 263.256 552.541 262.456C558.241 262.156 563.441 262.256 564.041 262.656C565.141 263.356 576.741 265.756 579.641 265.956C580.441 265.956 584.341 266.456 588.141 266.956C592.041 267.456 597.741 268.156 600.941 268.456C605.241 268.856 606.641 269.356 606.641 270.556C606.641 271.956 606.941 271.956 608.641 270.356C609.941 269.156 611.341 268.856 613.041 269.256C614.441 269.556 619.741 268.956 624.841 267.856C630.941 266.456 634.241 266.156 634.441 266.756C634.941 268.356 636.641 268.056 636.641 266.556C636.641 265.456 640.541 262.856 642.141 262.856C642.441 262.856 642.641 264.156 642.641 265.856C642.641 267.456 643.141 268.856 643.641 268.856C644.241 268.856 644.641 267.256 644.641 265.356C644.641 262.556 645.241 261.456 648.141 259.556C650.141 258.156 654.441 253.456 657.741 248.956C661.141 244.556 664.241 240.856 664.641 240.856C665.041 240.856 665.741 239.756 666.041 238.356C666.441 236.956 669.041 231.656 672.041 226.656C674.941 221.556 677.841 215.756 678.541 213.756C679.341 211.056 681.041 209.256 684.541 207.156C692.741 202.056 696.841 194.856 698.641 182.456C699.541 176.256 703.341 170.856 706.641 170.856C708.541 170.856 711.641 167.856 711.641 166.056C711.641 165.456 713.041 163.356 714.641 161.556C716.341 159.656 717.641 157.656 717.641 157.156C717.641 156.556 718.541 155.356 719.741 154.256C723.341 150.956 724.841 146.956 724.241 142.456C723.641 138.356 723.841 137.956 729.641 131.356C734.041 126.356 736.141 123.056 737.241 119.156C738.041 116.256 740.341 111.556 742.141 108.856C746.041 103.056 748.241 96.0557 749.241 86.8557C750.441 74.5557 746.641 67.3557 738.141 65.7557C728.441 63.9557 719.841 66.9557 702.441 78.2557C692.641 84.5557 688.241 86.8557 686.341 86.8557C685.541 86.8557 682.541 85.3557 679.741 83.4557C677.041 81.5557 671.641 79.0557 667.941 77.8557C664.241 76.5557 660.241 74.7557 659.141 73.7557C658.041 72.8557 655.941 71.7557 654.541 71.3557C650.741 70.4557 640.841 63.7557 638.841 60.7557C637.941 59.3557 635.441 55.6557 633.341 52.5557C627.741 44.1557 621.241 30.9557 614.741 14.7557C610.141 3.35571 608.441 0.255708 606.841 0.0557081C605.141 -0.244292 604.641 0.555708 603.641 5.25571Z" fill="white"/>
</svg>
